<!-- Uploaded to: SVG Repo, www.svgrepo.com, Transformed by: SVG Repo Tools -->
<svg version="1.1" id="Uploaded to svgrepo.com" xmlns="http://www.w3.org/2000/svg" xmlns:xlink="http://www.w3.org/1999/xlink" 
	 width="800px" height="800px" viewBox="0 0 32 32" xml:space="preserve">
<style type="text/css">
	.duotone_twee{fill:#555D5E;}
	.duotone_een{fill:#0B1719;}
</style>
<g>
	<path class="duotone_een" d="M26.693,18.296l-2.63-7.89c-0.18-0.541-0.945-0.541-1.126,0l-2.63,7.89C20,19,20.759,21.77,23.5,21.77
		C26.241,21.77,27,19,26.693,18.296z M23.5,11.879l2.11,6.331h-4.22L23.5,11.879z M11.7,18.296l-2.63-7.89
		c-0.18-0.541-0.945-0.541-1.126,0l-2.63,7.89C5.007,19,5.766,21.77,8.507,21.77C11.247,21.77,12.007,19,11.7,18.296z M8.507,11.879
		l2.11,6.331h-4.22L8.507,11.879z"/>
	<path class="duotone_twee" d="M24.5,9H18V7h6.5C24.776,7,25,7.224,25,7.5v1C25,8.776,24.776,9,24.5,9z M14,7H7.5
		C7.224,7,7,7.224,7,7.5v1C7,8.776,7.224,9,7.5,9H14V7z M19.106,26.053L17,25.028V7h-2v18.028l-2.106,1.025
		C12.423,26.289,12.59,27,13.118,27h5.764C19.41,27,19.577,26.289,19.106,26.053z M16,4c-0.552,0-1,0.448-1,1s0.448,1,1,1
		c0.552,0,1-0.448,1-1S16.552,4,16,4z"/>
</g>
</svg>