<?xml version="1.0" encoding="iso-8859-1"?>
<!-- Generator: Adobe Illustrator 19.0.0, SVG Export Plug-In . SVG Version: 6.00 Build 0)  -->
<svg version="1.1" id="Layer_1" xmlns="http://www.w3.org/2000/svg" xmlns:xlink="http://www.w3.org/1999/xlink" x="0px" y="0px"
	 viewBox="0 0 512.007 512.007" style="enable-background:new 0 0 512.007 512.007;" xml:space="preserve">
<g>
	<g>
		<path d="M512.007,51.204c0-28.279-22.921-51.2-51.2-51.2c-25.173,0-45.995,18.202-50.287,42.138
			c-19.883-10.419-41.83-16.538-64.913-16.538c-37.606,0-72.969,14.643-99.558,41.242c-0.87,0.862-88.286,86.758-220.442,86.758
			c-10.351,0-19.686,6.238-23.654,15.804c-3.968,9.566-1.775,20.574,5.547,27.904l167.33,167.33
			c-27.477,11.682-46.822,38.81-46.822,70.562c0,42.419,34.381,76.8,76.8,76.8c31.795,0,58.735-19.473,70.366-47.027l39.535,39.535
			c4.898,4.89,11.443,7.492,18.108,7.492c3.294,0,6.622-0.64,9.788-1.954c9.566-3.959,15.804-13.295,15.804-23.646
			c0-132.156,83.217-216.9,86.758-220.433c44.51-44.51,52.284-111.394,24.627-164.471C493.771,97.232,512.007,76.402,512.007,51.204
			z M204.807,486.404c-28.228,0-51.2-22.972-51.2-51.2c0-24.934,17.937-45.696,41.566-50.227l59.861,59.853
			C250.512,468.466,229.741,486.404,204.807,486.404z M427.066,247.863c-21.41,21.41-94.259,110.541-94.259,238.541
			c-128-128-204.8-204.8-307.2-307.2c128,0,220.092-75.81,238.541-94.259c22.494-22.494,51.977-33.741,81.459-33.741
			c29.483,0,58.965,11.247,81.459,33.741C472.054,129.932,472.054,202.875,427.066,247.863z M460.807,76.804
			c-3.191,0-6.178-0.751-8.994-1.826c-2.295-2.671-4.113-5.606-6.647-8.141c-2.526-2.526-5.478-4.395-8.149-6.699
			c-1.058-2.799-1.809-5.769-1.809-8.934c0-14.114,11.486-25.6,25.6-25.6c14.114,0,25.6,11.486,25.6,25.6
			S474.921,76.804,460.807,76.804z"/>
	</g>
</g>
<g>
</g>
<g>
</g>
<g>
</g>
<g>
</g>
<g>
</g>
<g>
</g>
<g>
</g>
<g>
</g>
<g>
</g>
<g>
</g>
<g>
</g>
<g>
</g>
<g>
</g>
<g>
</g>
<g>
</g>
</svg>
