<?xml version="1.0" encoding="iso-8859-1"?>
<!-- Uploaded to: SVG Repo, www.svgrepo.com, Transformed by: SVG Repo Tools -->
<!DOCTYPE svg PUBLIC "-//W3C//DTD SVG 1.1//EN" "http://www.w3.org/Graphics/SVG/1.1/DTD/svg11.dtd">
<svg fill="#000000" version="1.1" id="Capa_1" xmlns="http://www.w3.org/2000/svg" xmlns:xlink="http://www.w3.org/1999/xlink" 
	 width="800px" height="800px" viewBox="0 0 443.857 443.857"
	 xml:space="preserve">
<g>
	<path d="M443.857,405.525v24.211H0V14.121h24.21v391.405H443.857z M102.969,107.937H59.14v99.868h43.829V107.937z M164.819,75.155
		h-43.825v99.868h43.825V75.155z M230.402,75.155H186.58v146.776h43.822V75.155z M290.632,92.805H246.81v96.34h43.822V92.805z
		 M350.378,59.77h-43.822v96.339h43.822V59.77z M411.579,92.805H367.75v96.34h43.828V92.805z M98.015,288.51H54.19v70.977h43.825
		V288.51z M159.875,265.21h-43.828v70.982h43.828V265.21z M225.46,265.21h-43.828v104.313h43.828V265.21z M285.691,277.765h-43.828
		v68.464h43.828V277.765z M345.425,254.275h-43.822v68.476h43.822V254.275z M406.625,311.987h-43.822v34.235h43.822V311.987z"/>
</g>
<g>
</g>
<g>
</g>
<g>
</g>
<g>
</g>
<g>
</g>
<g>
</g>
<g>
</g>
<g>
</g>
<g>
</g>
<g>
</g>
<g>
</g>
<g>
</g>
<g>
</g>
<g>
</g>
<g>
</g>
</svg>