<?xml version="1.0" encoding="iso-8859-1"?>
<!-- Uploaded to: SVGRepo, www.svgrepo.com, Transformed by: SVGRepo Tools -->
<svg fill="#000000" height="800px" width="800px" version="1.1" id="Layer_1" xmlns="http://www.w3.org/2000/svg" xmlns:xlink="http://www.w3.org/1999/xlink" 
	 viewBox="0 0 330 330" xml:space="preserve">
<g id="XMLID_229_">
	<path id="XMLID_230_" d="M329.946,13.925c-0.017-0.237-0.033-0.474-0.061-0.708c-0.029-0.239-0.069-0.476-0.109-0.713
		c-0.042-0.252-0.083-0.504-0.138-0.752c-0.049-0.22-0.11-0.436-0.169-0.654c-0.067-0.253-0.134-0.507-0.215-0.754
		c-0.07-0.218-0.155-0.432-0.236-0.647c-0.09-0.236-0.176-0.473-0.277-0.703c-0.098-0.225-0.21-0.444-0.32-0.665
		c-0.105-0.211-0.207-0.424-0.321-0.629c-0.124-0.223-0.263-0.438-0.398-0.656c-0.123-0.196-0.243-0.393-0.376-0.583
		c-0.141-0.204-0.295-0.4-0.447-0.598c-0.15-0.196-0.301-0.391-0.46-0.578c-0.149-0.176-0.31-0.345-0.468-0.515
		c-0.186-0.198-0.372-0.393-0.568-0.582c-0.066-0.063-0.123-0.133-0.19-0.195c-0.099-0.091-0.205-0.167-0.305-0.254
		c-0.205-0.181-0.413-0.356-0.628-0.526c-0.183-0.144-0.368-0.282-0.557-0.416c-0.206-0.148-0.417-0.291-0.631-0.428
		c-0.206-0.132-0.413-0.258-0.624-0.379c-0.21-0.121-0.424-0.235-0.64-0.346c-0.221-0.113-0.442-0.221-0.667-0.321
		c-0.221-0.099-0.443-0.191-0.668-0.279c-0.229-0.09-0.459-0.175-0.691-0.253c-0.23-0.077-0.463-0.148-0.697-0.214
		c-0.237-0.067-0.476-0.129-0.716-0.184c-0.233-0.054-0.468-0.101-0.705-0.144c-0.253-0.046-0.507-0.084-0.763-0.117
		c-0.227-0.029-0.454-0.053-0.684-0.072c-0.274-0.022-0.549-0.035-0.823-0.042C315.262,0.017,315.133,0,315,0h-60
		c-8.284,0-15,6.716-15,15s6.716,15,15,15h25.669l-91.085,98.371l-38.978-38.978c-2.882-2.883-6.804-4.448-10.892-4.391
		c-4.076,0.078-7.945,1.811-10.717,4.801l-125,134.868c-5.631,6.076-5.271,15.566,0.805,21.198
		c2.888,2.676,6.545,3.999,10.193,3.999c4.03,0,8.05-1.615,11.006-4.803L140.41,121.624l38.983,38.983
		c2.884,2.884,6.847,4.483,10.895,4.391c4.077-0.078,7.948-1.814,10.718-4.806L300,53.278V75c0,8.284,6.716,15,15,15
		c8.284,0,15-6.716,15-15V15c0-0.094-0.012-0.184-0.014-0.277C329.981,14.457,329.965,14.191,329.946,13.925z"/>
	<path id="XMLID_231_" d="M315,300H15c-8.284,0-15,6.716-15,15c0,8.284,6.716,15,15,15h300c8.284,0,15-6.716,15-15
		C330,306.716,323.284,300,315,300z"/>
</g>
<g>
</g>
<g>
</g>
<g>
</g>
<g>
</g>
<g>
</g>
<g>
</g>
<g>
</g>
<g>
</g>
<g>
</g>
<g>
</g>
<g>
</g>
<g>
</g>
<g>
</g>
<g>
</g>
<g>
</g>
</svg>
