<?xml version="1.0" encoding="iso-8859-1"?>
<!-- Generator: Adobe Illustrator 19.0.0, SVG Export Plug-In . SVG Version: 6.00 Build 0)  -->
<svg version="1.1" id="Layer_1" xmlns="http://www.w3.org/2000/svg" xmlns:xlink="http://www.w3.org/1999/xlink" x="0px" y="0px"
	 viewBox="0 0 512.48 512.48" style="enable-background:new 0 0 512.48 512.48;" xml:space="preserve">
<polygon points="38.928,431.416 27.616,420.104 146.56,301.176 327.44,399.848 470.784,288.376 480.592,301 328.976,418.904 
	149.392,320.952 "/>
<g>
	<path style="fill:#32BEA6;" d="M267.584,274.856v-28.32c-16.256-0.288-33.056-5.328-42.88-12.336l6.72-18.784
		c10.096,6.72,24.672,12.048,40.352,12.048c19.904,0,33.36-11.488,33.36-27.472c0-15.408-10.944-24.944-31.664-33.344
		c-28.592-11.216-46.256-24.112-46.256-48.48c0-23.264,16.544-40.928,42.336-45.12v-28.32h17.376v27.184
		c16.816,0.56,28.32,5.04,36.432,9.808l-7.024,18.528c-5.872-3.376-17.376-9.536-35.312-9.536
		c-21.584,0-29.696,12.896-29.696,24.096c0,14.576,10.368,21.856,34.752,31.952c28.88,11.776,43.456,26.336,43.456,51.296
		c0,22.144-15.424,42.88-44.304,47.648v29.152H267.584z"/>
	<circle style="fill:#32BEA6;" cx="479.216" cy="294.68" r="33.264"/>
	<circle style="fill:#32BEA6;" cx="33.264" cy="434.488" r="33.264"/>
	<circle style="fill:#32BEA6;" cx="145.36" cy="312.056" r="33.264"/>
	<circle style="fill:#32BEA6;" cx="328.208" cy="407.304" r="33.264"/>
</g>
<g>
</g>
<g>
</g>
<g>
</g>
<g>
</g>
<g>
</g>
<g>
</g>
<g>
</g>
<g>
</g>
<g>
</g>
<g>
</g>
<g>
</g>
<g>
</g>
<g>
</g>
<g>
</g>
<g>
</g>
</svg>
