<?xml version="1.0" ?><!-- Uploaded to: SVG Repo, www.svgrepo.com, Transformed by: SVG Repo Tools -->
<svg fill="#000000" width="800px" height="800px" viewBox="0 0 128 128" id="Layer_1" version="1.1" xml:space="preserve" xmlns="http://www.w3.org/2000/svg" xmlns:xlink="http://www.w3.org/1999/xlink"><g><path d="M25.8,103.8h78.7c5.2,0,9.4-4.2,9.4-9.4V44.2c0-5.2-4.2-9.4-9.4-9.4H83.9v-1.9c0-5.7-4.6-10.3-10.3-10.3H56.7   c-5.7,0-10.3,4.6-10.3,10.3v1.9H25.8c-5.2,0-9.4,4.2-9.4,9.4v50.3C16.4,99.6,20.6,103.8,25.8,103.8z M20.2,44.2   c0-3.1,2.5-5.6,5.6-5.6h78.7c3.1,0,5.6,2.5,5.6,5.6v50.3c0,3.1-2.5,5.6-5.6,5.6H25.8c-3.1,0-5.6-2.5-5.6-5.6V44.2z M52,32.9   c0-2.6,2.1-4.7,4.7-4.7h16.9c2.6,0,4.7,2.1,4.7,4.7v1.9H52V32.9z"/><path d="M36.2,50.3H40v-9c0-1-0.8-1.9-1.9-1.9s-1.9,0.8-1.9,1.9V50.3z"/><rect height="23.6" width="3.7" x="36.2" y="54"/><path d="M36.2,88.8c0,1,0.8,1.9,1.9,1.9s1.9-0.8,1.9-1.9v-7.5h-3.7V88.8z"/><path d="M33.7,50.3c-1,0-1.9,0.8-1.9,1.9s0.8,1.9,1.9,1.9h2.5H40h2.5c1,0,1.9-0.8,1.9-1.9s-0.8-1.9-1.9-1.9H40h-3.7H33.7z"/><path d="M33.7,77.6c-1,0-1.9,0.8-1.9,1.9c0,1,0.8,1.9,1.9,1.9h2.5H40h2.5c1,0,1.9-0.8,1.9-1.9c0-1-0.8-1.9-1.9-1.9H40h-3.7H33.7z"/><path d="M90.3,50.3h3.7v-9c0-1-0.8-1.9-1.9-1.9c-1,0-1.9,0.8-1.9,1.9V50.3z"/><rect height="23.6" width="3.7" x="90.3" y="54"/><path d="M90.3,88.8c0,1,0.8,1.9,1.9,1.9c1,0,1.9-0.8,1.9-1.9v-7.5h-3.7V88.8z"/><path d="M87.8,50.3c-1,0-1.9,0.8-1.9,1.9s0.8,1.9,1.9,1.9h2.5h3.7h2.5c1,0,1.9-0.8,1.9-1.9s-0.8-1.9-1.9-1.9h-2.5h-3.7H87.8z"/><path d="M87.8,77.6c-1,0-1.9,0.8-1.9,1.9c0,1,0.8,1.9,1.9,1.9h2.5h3.7h2.5c1,0,1.9-0.8,1.9-1.9c0-1-0.8-1.9-1.9-1.9h-2.5h-3.7H87.8   z"/></g></svg>