<?xml version="1.0" encoding="iso-8859-1"?>
<!-- Uploaded to: SVGRepo, www.svgrepo.com, Transformed by: SVGRepo Tools -->
<!DOCTYPE svg PUBLIC "-//W3C//DTD SVG 1.1//EN" "http://www.w3.org/Graphics/SVG/1.1/DTD/svg11.dtd">
<svg fill="#000000" version="1.1" id="Capa_1" xmlns="http://www.w3.org/2000/svg" xmlns:xlink="http://www.w3.org/1999/xlink" 
	 width="800px" height="800px" viewBox="0 0 436.949 436.95"
	 xml:space="preserve">
<g>
	<path d="M189.567,315.883l66.277,53.502c12.633,10.231,29.215,10.7,37.037,1.052c7.773-9.658,3.814-25.752-8.816-36.003
		l-27.598-22.271l144.461,0.105c11.934,0.01,21.639-9.677,21.678-21.621c0-11.943-9.707-21.668-21.641-21.649l-142.021-0.124
		l25.168-20.282c12.68-10.184,16.629-26.297,8.893-35.964c-7.783-9.648-24.365-9.199-37.045,1.014l-66.325,53.387
		c-2.41,1.922-4.427,4.035-6.177,6.283c-5.164,3.978-8.568,10.117-8.568,17.136c-0.01,5.346,1.979,10.155,5.192,13.951
		C182.232,308.577,185.417,312.526,189.567,315.883z"/>
	<path d="M180.989,223.29l66.325-53.387c2.41-1.913,4.438-4.036,6.178-6.283c5.154-3.978,8.568-10.107,8.568-17.117
		c0.02-5.365-1.998-10.175-5.211-13.961c-2.133-4.169-5.318-8.119-9.477-11.475l-66.259-53.502
		c-12.632-10.223-29.223-10.71-37.036-1.052c-7.784,9.658-3.844,25.761,8.807,35.993l27.607,22.28L36.022,124.7
		c-11.924-0.019-21.63,9.658-21.669,21.602c0,11.944,9.706,21.688,21.64,21.65l141.994,0.124l-25.149,20.282
		c-12.689,10.193-16.629,26.297-8.884,35.964C151.728,233.961,168.31,233.502,180.989,223.29z"/>
	<path d="M422.605,91.126H298.752c-7.918,0-14.344,6.426-14.344,14.344c0,7.917,6.426,14.344,14.344,14.344h123.854
		c7.918,0,14.344-6.426,14.344-14.344C436.949,97.552,430.523,91.126,422.605,91.126z"/>
	<path d="M422.605,155.778H298.752c-7.918,0-14.344,6.426-14.344,14.344s6.426,14.344,14.344,14.344h123.854
		c7.918,0,14.344-6.426,14.344-14.344S430.523,155.778,422.605,155.778z"/>
	<path d="M14.344,244.872C6.426,244.872,0,251.297,0,259.215s6.426,14.344,14.344,14.344h123.854
		c7.917,0,14.344-6.426,14.344-14.344s-6.426-14.344-14.344-14.344H14.344L14.344,244.872z"/>
	<path d="M152.55,323.858c0-7.918-6.426-14.344-14.344-14.344H14.344C6.426,309.514,0,315.94,0,323.858s6.426,14.344,14.344,14.344
		h123.854C146.125,338.202,152.55,331.776,152.55,323.858z"/>
</g>
<g>
</g>
<g>
</g>
<g>
</g>
<g>
</g>
<g>
</g>
<g>
</g>
<g>
</g>
<g>
</g>
<g>
</g>
<g>
</g>
<g>
</g>
<g>
</g>
<g>
</g>
<g>
</g>
<g>
</g>
</svg>
